OpenSim_Sub08_CSBaseline_GRF.mot
version=1
nRows=69
nColumns=19
inDegrees=no
endheader
time	lFx	lFy	lFz	lCOPx	lCOPy	lCOPz	rFx	rFy	rFz	rCOPx	rCOPy	rCOPz	lMx	lMy	lMz	rMx	rMy	rMz
27.30000000	-3.66233079	-1.32686323	-0.91209975	0.02482718	0	-0.01346433	10.80610505	520.87049651	-35.56394526	0.68040445	0	-0.41505124	0	-0.12173547	0	0	0.06337594	0
27.31000000	-3.46100176	-1.54560536	-0.84887111	-0.00420480	0	0.00473290	11.82658716	520.74296553	-36.20571475	0.67627459	0	-0.41408431	0	-0.15424819	0	0	0.09634380	0
27.32000000	-2.00312531	-0.09512855	-0.81591879	-0.00467998	0	0.00448137	13.12181768	521.57289080	-36.89032171	0.67176627	0	-0.41319482	0	-0.14254119	0	0	0.15845163	0
27.33000000	1.66245895	5.53393164	-0.87434374	0.07146464	0	-0.04590604	14.78727819	523.62313553	-37.50142908	0.66701153	0	-0.41248276	0	0.05856593	0	0	0.25942547	0
27.34000000	7.33032628	17.50455050	-1.20303581	0.26569731	0	-0.17492518	16.94465488	527.00781546	-37.98928664	0.66208581	0	-0.41197083	0	0.68168827	0	0	0.37700490	0
27.35000000	11.96172652	35.64267665	-1.79150417	0.54770253	0	-0.36453793	19.67777763	531.36135957	-38.38263297	0.65677500	0	-0.41162491	0	1.85835817	0	0	0.52359582	0
27.36000000	12.34967562	58.34381894	-2.71422695	0.77141970	0	-0.51714690	22.82947610	535.85698729	-38.72700395	0.65111437	0	-0.41137519	0	3.40129922	0	0	0.66390195	0
27.37000000	8.35756521	85.46140407	-3.45962571	0.88058393	0	-0.59187042	26.20735431	539.66775819	-39.14854779	0.64519978	0	-0.41114026	0	5.02336552	0	0	0.76148433	0
27.38000000	2.02285579	119.97982770	-3.27215260	0.91166042	0	-0.61253823	29.72665838	542.18028593	-39.76170245	0.63901993	0	-0.41088748	0	6.55337201	0	0	0.84333824	0
27.39000000	-5.42683497	164.91176429	-1.69951227	0.90867519	0	-0.61022439	33.39535279	542.99463662	-40.62671804	0.63264906	0	-0.41061862	0	8.00294238	0	0	0.93387778	-0.00000000
27.40000000	-13.56563579	218.95580262	1.97795993	0.89774728	0	-0.60364203	37.34774576	541.70336135	-41.58079915	0.62617508	0	-0.41037384	0	9.22789388	0	0	0.99173401	0.00000000
27.41000000	-21.65535923	275.02770916	8.31704491	0.88956389	0	-0.59994925	41.46064989	538.01973680	-42.39176429	0.61967923	0	-0.41021666	0	9.79200984	0	0	1.03304257	0
27.42000000	-28.84247199	323.42624349	17.14322433	0.88540663	0	-0.59971684	45.48405091	532.02428387	-42.90958864	0.61338162	0	-0.41014008	0	9.32415814	0	0	1.12631638	0
27.43000000	-34.41223120	358.80185970	27.71588800	0.88353847	0	-0.60155415	49.29806180	523.93758829	-42.89606744	0.60735163	0	-0.41009030	0	7.76062032	0	0	1.20505946	0
27.44000000	-38.49563750	382.69833297	38.76674952	0.88176047	0	-0.60411176	53.01174029	513.75376170	-42.27985382	0.60127511	0	-0.41004875	0	5.53149572	0	0	1.25981704	0
27.45000000	-41.64047449	399.89728030	48.58213723	0.87891662	0	-0.60658497	56.65196540	501.39449363	-41.24446201	0.59527573	0	-0.41005199	0	3.30903203	0	0	1.36369839	0
27.46000000	-43.53410220	415.09281246	55.33811521	0.87504751	0	-0.60855737	59.99314769	486.55501947	-39.89466471	0.58941265	0	-0.41013812	0	1.80740218	0	0	1.49774499	0
27.47000000	-44.73288978	432.41005587	59.02126113	0.87044632	0	-0.60977845	62.89051450	468.94494432	-38.19289752	0.58366619	0	-0.41027603	0	1.22118029	0	0	1.59035972	0
27.48000000	-45.83104835	453.85516415	60.17749058	0.86554367	0	-0.61021703	65.43188653	448.07539549	-36.03508392	0.57780347	0	-0.41044072	0	1.52578170	0	0	1.65930258	0.00000000
27.49000000	-46.80130059	478.82456974	59.42021486	0.86074152	0	-0.61005187	67.69409208	423.15334882	-33.25454791	0.57170051	0	-0.41061485	0	2.52524407	0	0	1.73816590	0
27.50000000	-47.57362005	505.02812152	57.79333770	0.85598412	0	-0.60954570	69.39658801	393.33244491	-29.79769517	0.56538661	0	-0.41077198	0	3.81942044	0	0	1.83367972	0
27.51000000	-48.14434932	529.64385003	56.36620371	0.85115454	0	-0.60892667	69.89947279	358.09700176	-25.78722649	0.55933979	0	-0.41084114	0	5.04786994	0	0	1.91208732	0
27.52000000	-48.52654184	550.04542716	55.73669394	0.84621452	0	-0.60837290	68.21644160	317.30679953	-21.44446987	0.55331786	0	-0.41091046	0	5.94363515	0	0	1.92580892	0
27.53000000	-48.50246913	564.35550498	55.96268817	0.84098997	0	-0.60800134	63.46979087	271.51737811	-17.23809776	0.54702349	0	-0.41156354	0	6.40638762	0	0	1.86034425	-0.00000000
27.54000000	-47.87712057	571.78095133	56.70832355	0.83546178	0	-0.60783957	55.12333706	222.75790778	-13.84950269	0.54153784	0	-0.41385527	0	6.47320333	0	0	1.71271193	0
27.55000000	-46.69827459	572.80044995	57.50738490	0.82965136	0	-0.60780824	43.70502143	174.46056545	-11.76342676	0.53933284	0	-0.41879462	0	6.23066648	0	0	1.47469532	0
27.56000000	-45.22609025	569.13347507	57.86459143	0.82374388	0	-0.60780164	30.79649430	130.36632559	-10.99627835	0.54088108	0	-0.42597405	0	5.83544894	0	0	1.17609489	0
27.57000000	-43.65644250	562.93020925	57.35870415	0.81778465	0	-0.60771342	18.57157945	93.45125945	-11.02809085	0.54051436	0	-0.43021319	0	5.50763461	0	0	0.90002545	0
27.58000000	-41.95372430	555.87233263	55.93213003	0.81179507	0	-0.60747741	8.86339668	64.94323812	-10.98991602	0.52236224	0	-0.41739797	0	5.39729829	0	0	0.64295868	-0.00000000
27.59000000	-40.06163087	548.84938100	53.89163547	0.80572087	0	-0.60714946	2.41610237	44.10347667	-10.30258541	0.46015657	0	-0.36387288	0	5.48481451	0	0	0.30349704	0
27.60000000	-38.03280821	541.97977661	51.59244960	0.79967351	0	-0.60680122	-1.05820738	29.05219443	-8.92619200	0.33310491	0	-0.25305332	0	5.71375969	0	0	-0.02860899	-0.00000000
27.61000000	-36.01835817	534.88493352	49.48002623	0.79367211	0	-0.60640888	-2.44403104	17.88303064	-7.00278983	0.16739205	0	-0.11895892	0	5.94493672	0	0	-0.21115000	-0.00000000
27.62000000	-34.03658893	527.25801250	47.84772465	0.78757659	0	-0.60598458	-2.50236003	9.56374581	-4.74940679	0.04732069	0	-0.02929941	0	6.03267354	0	0	-0.16377023	0.00000000
27.63000000	-31.99589711	519.34438050	46.74007042	0.78132300	0	-0.60561215	-1.68761619	3.77094018	-2.38488060	-0.00597185	0	0.00773654	0	5.96105971	0	0	-0.07642662	0.00000000
27.64000000	-29.78664958	511.74574302	46.04005314	0.77508994	0	-0.60534223	-0.73527625	0.62869332	-0.51664315	-0.01729689	0	0.01396785	0	5.79253763	0	0	-0.01846269	0.00000000
27.65000000	-27.48153921	505.08365071	45.52504798	0.76901703	0	-0.60517835	-0.18043631	-0.38570556	0.05241490	-0.01237828	0	0.00922740	0	5.61480253	0	0	0.00526171	0.00000000
27.66000000	-25.14037541	499.51565076	44.98319928	0.76281387	0	-0.60507207	0.01796101	-0.40264387	0.04851464	-0.00542384	0	0.00376001	0	5.48502153	0	0	0.00911356	-0.00000000
27.67000000	-22.75104634	495.00732117	44.31591226	0.75621200	0	-0.60494963	0.01954701	-0.17263252	0.04696654	-0.00111093	0	0.00059969	0	5.44187186	0	0	0.00596417	0.00000000
27.68000000	-20.26625397	491.58239675	43.56748178	0.74926623	0	-0.60478202	-0.04302873	0.02905244	-0.16251130	0.00053421	0	-0.00050783	0	5.48145591	0	0	0.00240778	0.00000000
27.69000000	-17.74964903	489.09262526	42.79512657	0.74248426	0	-0.60454636	-0.11397437	0.14933762	-0.27595534	0.00072392	0	-0.00056781	0	5.56758661	0	0	0.00036945	-0.00000000
27.70000000	-15.32930403	487.29112496	42.00452908	0.73616283	0	-0.60420613	-0.14840445	0.17680123	-0.22167438	0.00044309	0	-0.00032412	0	5.67421119	0	0	-0.00033695	0.00000000
27.71000000	-13.02708460	486.14469648	41.21044447	0.73003466	0	-0.60371024	-0.16482950	0.15519000	-0.21265233	0.00016652	0	-0.00011172	0	5.76829768	0	0	-0.00036925	-0.00000000
27.72000000	-10.87266680	486.00938488	40.45562641	0.72393596	0	-0.60312673	-0.15132607	0.16659341	-0.16281655	0.00001748	0	-0.00000465	0	5.85718557	0	0	-0.00020901	-0.00000000
27.73000000	-8.87054461	487.08460999	39.78349298	0.71765115	0	-0.60250087	-0.12381322	0.21399257	-0.13252540	-0.00002982	0	0.00002572	0	5.95242905	0	0	-0.00007122	-0.00000000
27.74000000	-6.84366310	489.56017512	39.25668344	0.71078883	0	-0.60187183	-0.11731482	0.31352702	-0.14523996	-0.00002866	0	0.00002197	0	6.05330397	0	0	-0.00000234	-0.00000000
27.75000000	-4.65530388	493.78417678	38.94981286	0.70337293	0	-0.60129481	-0.10431062	0.36291394	-0.14921816	-0.00001526	0	0.00001094	0	6.17365795	0	0	0.00001690	-0.00000000
27.76000000	-2.36928584	499.92242159	38.85205643	0.69599027	0	-0.60079786	-0.07655669	0.35471539	-0.17447597	-0.00000475	0	0.00000303	0	6.35231548	0	0	0.00001425	0.00000000
27.77000000	-0.08564329	507.54659700	38.84448863	0.68901717	0	-0.60035451	-0.05890870	0.28115663	-0.19482471	0.00000019	0	-0.00000044	0	6.58592480	0	0	0.00000704	0.00000000
27.78000000	2.04806446	515.59900892	38.81130292	0.68273781	0	-0.60000481	-0.05591207	0.22154010	-0.18683829	0.00000141	0	-0.00000116	0	6.82227731	0	0	0.00000192	0.00000000
27.79000000	3.93732494	522.52299040	38.80130464	0.67716418	0	-0.59982492	-0.05094133	0.18857478	-0.21975360	0.00000109	0	-0.00000082	0	6.96554577	0	0	-0.00000031	-0.00000000
27.80000000	5.63139344	527.36940821	38.99050145	0.67191902	0	-0.59979784	-0.06669426	0.20755223	-0.26958503	0.00000050	0	-0.00000035	0	6.93922483	0	0	-0.00000075	-0.00000000
27.81000000	7.19823893	530.35336793	39.53404252	0.66667767	0	-0.59991182	-0.08176921	0.26294676	-0.27250759	0.00000010	0	-0.00000006	0	6.70830745	0	0	-0.00000051	-0.00000000
27.82000000	8.48449264	532.11823345	40.34304727	0.66161977	0	-0.60018912	-0.07594215	0.30618406	-0.28948382	-0.00000008	0	0.00000006	0	6.32243800	0	0	-0.00000020	0.00000000
27.83000000	9.33837136	533.02205772	41.19037836	0.65682835	0	-0.60059248	-0.05661499	0.29227784	-0.30892872	-0.00000015	0	0.00000009	0	5.89182492	0	0	-0.00000002	-0.00000000
27.84000000	9.94575534	533.25977567	41.92586195	0.65230894	0	-0.60108841	-0.04553866	0.27014308	-0.28426276	-0.00000013	0	0.00000008	0	5.50150798	0	0	-0.00000001	0.00000000
27.85000000	10.54409286	532.95354837	42.53071346	0.64794012	0	-0.60164195	-0.04253212	0.30044484	-0.26184019	0.00000005	0	-0.00000001	0	5.18670676	0	0	-0.00000014	0.00000000
27.86000000	11.22038498	532.09927246	43.03410803	0.64364922	0	-0.60221717	-0.03716206	0.37664488	-0.25737563	0.00000054	0	-0.00000023	0	4.92083178	0	0	-0.00000038	-0.00000000
27.87000000	11.85534896	530.50414694	43.48797654	0.63948586	0	-0.60278615	-0.02665755	0.47209373	-0.25519610	0.00000142	0	-0.00000064	0	4.63841355	0	0	-0.00000057	0.00000000
27.88000000	12.44337446	527.82657988	43.88686720	0.63538638	0	-0.60334718	-0.03696935	0.47346332	-0.25987099	0.00000228	0	-0.00000109	0	4.32956720	0	0	-0.00000026	-0.00000000
27.89000000	13.04122260	524.13434605	44.16223793	0.63136993	0	-0.60396946	-0.06586132	0.40068338	-0.26294677	0.00000158	0	-0.00000090	0	4.02005374	0	0	0.00000139	-0.00000000
27.90000000	13.64704395	519.76377888	44.32120167	0.62729768	0	-0.60465758	-0.09143147	0.35425732	-0.24567712	-0.00000381	0	0.00000137	0	3.73956377	0	0	0.00000524	-0.00000000
27.91000000	14.09118129	514.94669716	44.40630145	0.62331360	0	-0.60533642	-0.11755176	0.34280682	-0.24810994	-0.00001762	0	0.00000758	0	3.48239062	0	0	0.00001076	-0.00000000
27.92000000	14.29844368	509.53019670	44.35275018	0.61948226	0	-0.60590135	-0.13115885	0.33712130	-0.26501746	-0.00003946	0	0.00001800	0	3.25669012	0	0	0.00001306	-0.00000000
27.93000000	14.45374790	503.33042499	44.09038027	0.61567395	0	-0.60629002	-0.13762658	0.35240287	-0.25161511	-0.00005388	0	0.00002632	0	3.05439820	0	0	-0.00000086	0.00000000
27.94000000	14.78208404	496.56453221	43.62287798	0.61179745	0	-0.60646692	-0.13042312	0.35479555	-0.23299673	-0.00001518	0	0.00001225	0	2.84304673	0	0	-0.00005216	0.00000000
27.95000000	15.43717270	489.77138884	42.93673201	0.60808401	0	-0.60642893	-0.09522872	0.37088689	-0.21939816	0.00015789	0	-0.00006232	0	2.67288014	0	0	-0.00015630	0.00000000
27.96000000	16.48549170	483.37283501	41.91555799	0.60455195	0	-0.60621762	-0.04910690	0.38279041	-0.24352858	0.00054051	0	-0.00023709	0	2.63794692	0	0	-0.00028032	-0.00000000
27.97000000	17.96391608	476.82841275	40.41908963	0.60073183	0	-0.60585248	-0.00289324	0.41657684	-0.29231999	0.00105466	0	-0.00048891	0	2.80348074	0	0	-0.00026479	0.00000000
27.98000000	19.74631219	468.86270587	38.49965513	0.59615326	0	-0.60530625	-0.00892037	0.45387443	-0.29472347	0.00117650	0	-0.00059649	0	3.09823528	0	0	0.00025298	-0.00000000
